{"title":"Kingsman.The.Secret.Service.2014.720p.BRRip.XviD.AC3-RARBG","uid":11950574,"size":4300340818,"categoryP":"video","categoryS":"hd___movies","magnet":"?xt=urn:btih:eb13776f4b32141f1b5307ddecf0c40bb1a38cd1&amp;dn=Kingsman.The.Secret.Service.2014.720p.BRRip.XviD.AC3-RARBG&amp;tr=udp%3A%2F%2Ftracker.openbittorrent.com%3A80&amp;tr=udp%3A%2F%2Fopen.demonii.com%3A1337&amp;tr=udp%3A%2F%2Ftracker.coppersurfer.tk%3A6969&amp;tr=udp%3A%2F%2Fexodus.desync.com%3A6969","seeders":0,"leechers":1,"uploader":"vickey1992","files":7,"time":1432150110,"description":"Video\nID                                       : 0\nFormat                                   : MPEG-4 Visual\nFormat profile                           : Simple@L5\nFormat settings, BVOP                    : No\nFormat settings, QPel                    : No\nFormat settings, GMC                     : No warppoints\nFormat settings, Matrix                  : Default (H.263)\nCodec ID                                 : XVID\nCodec ID/Hint                            : XviD\nDuration                                 : 2h 8mn\nBit rate                                 : 3 796 Kbps\nWidth                                    : 1 280 pixels\nHeight                                   : 536 pixels\nDisplay aspect ratio                     : 2.40:1\nFrame rate                               : 23.976 fps\nColor space                              : YUV\nChroma subsampling                       : 4:2:0\nBit depth                                : 8 bits\nScan type                                : Progressive\nCompression mode                         : Lossy\nBits/(Pixel*Frame)                       : 0.231\nStream size                              : 3.41 GiB (85%)\nWriting library                          : Lavc56.19.100\n\nAudio\nID                                       : 1\nFormat                                   : AC-3\nFormat/Info                              : Audio Coding 3\nMode extension                           : CM (complete main)\nFormat settings, Endianness              : Big\nCodec ID                                 : 2000\nDuration                                 : 2h 8mn\nBit rate mode                            : Constant\nBit rate                                 : 640 Kbps\nChannel(s)                               : 6 channels\nChannel positions                        : Front: L C R, Side: L R, LFE\nSampling rate                            : 48.0 KHz\nBit depth                                : 16 bits\nCompression mode                         : Lossy\nStream size                              : 589 MiB (14%)\nAlignment                                : Aligned on interleaves\nInterleave, duration                     : 42 ms (1.00 video frame)\nInterleave, preload duration             : 512 ms","torrent":{"xt":"urn:btih:eb13776f4b32141f1b5307ddecf0c40bb1a38cd1","amp;dn":"Kingsman.The.Secret.Service.2014.720p.BRRip.XviD.AC3-RARBG","amp;tr":["udp%3A%2F%2Ftracker.openbittorrent.com%3A80","udp%3A%2F%2Fopen.demonii.com%3A1337","udp%3A%2F%2Ftracker.coppersurfer.tk%3A6969","udp%3A%2F%2Fexodus.desync.com%3A6969"],"infoHash":"eb13776f4b32141f1b5307ddecf0c40bb1a38cd1","infoHashBuffer":{"type":"Buffer","data":[235,19,119,111,75,50,20,31,27,83,7,221,236,240,196,11,177,163,140,209]},"announce":[],"urlList":[]}}